<svg xmlns="http://www.w3.org/2000/svg" style="display: none;">
  
    <symbol id="icon-social-twitter" viewBox="0 0 512 512">
      <path d="m453 134c-14 6-30 11-46 12c16-10 29-25 35-44c-15 9-33 16-51 19c-15-15-36-25-59-25c-45 0-81 36-81 81c0 6 1 12 2 18c-67-3-127-35-167-84c-7 12-11 25-11 40c0 28 15 53 36 68c-13-1-25-4-36-11c0 1 0 1 0 2c0 39 28 71 65 79c-7 2-14 3-22 3c-5 0-10-1-15-2c10 32 40 56 76 56c-28 22-63 35-101 35c-6 0-13 0-19-1c36 23 78 36 124 36c149 0 230-123 230-230c0-3 0-7 0-10c16-12 29-26 40-42z"/>
    </symbol>
  
    <symbol id="icon-social-github" viewBox="0 0 512 512">
      <path d="m256 61c-110 0-200 90-200 200c0 88 58 163 137 189c10 2 14-4 14-9c0-5-1-17-1-34c-55 12-67-27-67-27c-9-23-22-29-22-29c-18-13 1-12 1-12c20 1 31 20 31 20c18 31 47 22 58 17c2-13 7-22 13-27c-45-5-91-22-91-99c0-21 7-39 20-53c-2-5-9-25 2-53c0 0 17-5 55 21c16-5 33-7 50-7c17 0 34 2 50 7c38-26 55-21 55-21c11 28 4 48 2 53c13 14 20 32 20 53c0 77-46 94-91 99c7 6 14 18 14 37c0 27 0 48 0 55c0 5 3 11 13 9c80-26 137-101 137-189c0-110-90-200-200-200z"/>
    </symbol>
  
    <symbol id="icon-social-linkedin" viewBox="0 0 512 512">
      <path d="m413 72l-314 0c-15 0-27 12-27 26l0 316c0 14 12 26 27 26l314 0c15 0 27-12 27-26l0-316c0-14-12-26-27-26z m-232 314l-55 0l0-176l55 0z m-27-200c-18 0-32-14-32-32c0-17 14-32 32-32c17 0 31 15 31 32c0 18-14 32-31 32z m232 200l-55 0l0-86c0-20 0-46-28-46c-29 0-33 22-33 45l0 87l-55 0l0-176l53 0l0 24l1 0c7-14 25-28 51-28c56 0 66 36 66 83l0 97z"/>
    </symbol>
  
    <symbol id="icon-social-youtube" viewBox="0 0 512 512">
      <path d="m231 360c-3 5-7 8-10 8c-2 0-3-1-4-4c0 0 0-2 0-6l0-65l-16 0l0 70c0 6 1 10 2 13c1 4 5 7 10 7c6 0 12-4 18-11l0 9l16 0l0-88l-16 0z m-88-81l19 0l0 102l18 0l0-102l19 0l0-17l-56 0z m109-78c6 0 8-4 8-12l0-38c0-8-2-12-8-12c-5 0-7 4-7 12l0 38c0 8 2 12 7 12z m42 91c-6 0-11 3-17 9l0-39l-16 0l0 119l16 0l0-8c6 6 11 10 17 10c6 0 11-4 13-10c1-4 2-10 2-18l0-36c0-8-1-14-2-17c-2-7-7-10-13-10z m-2 64c0 8-2 12-7 12c-2 0-5-1-8-4l0-54c3-3 6-4 8-4c5 0 7 4 7 12z m53-64c-8 0-14 3-19 9c-3 4-5 11-5 21l0 31c0 9 2 16 5 20c5 7 11 10 20 10c8 0 15-4 19-10c2-3 3-6 4-10c0-1 0-5 0-10l0-2l-16 0c0 6 0 10-1 10c0 5-3 7-7 7c-5 0-8-4-8-12l0-16l32 0l0-19c0-9-1-16-5-20c-4-6-11-9-19-9z m8 34l-16 0l0-8c0-8 3-12 8-12c5 0 8 4 8 12z m51-254l-296 0c-20 0-36 16-36 36l0 296c0 20 16 36 36 36l296 0c20 0 36-16 36-36l0-296c0-20-16-36-36-36z m-114 53l16 0l0 66c0 4 0 6 0 7c0 2 2 3 4 3c3 0 7-2 10-7l0-69l16 0l0 90l-16 0l0-10c-6 8-12 11-18 11c-6 0-9-2-11-6c-1-3-1-7-1-14z m-62 30c0-10 2-17 5-22c5-6 11-9 19-9c8 0 15 3 19 9c4 5 5 12 5 22l0 31c0 9-1 17-5 21c-4 6-11 9-19 9c-8 0-14-3-19-9c-3-4-5-12-5-21z m-43-60l13 47l12-47l18 0l-22 71l0 49l-18 0l0-49c-1-8-5-21-11-38c-3-11-7-22-11-33z m199 292c-3 14-14 24-28 26c-33 3-67 3-100 3c-33 0-67 0-100-3c-14-2-25-12-28-26c-5-20-5-42-5-63c0-21 0-43 5-63c3-14 15-25 28-26c33-4 67-4 100-4c33 0 67 0 100 4c14 1 25 12 28 26c5 20 5 42 5 63c0 21 0 43-5 63z"/>
    </symbol>

    <symbol id="icon-letter-mail-1" viewBox="0 0 512 512">
      <path d="m485 97l-5-1l-448 0l-3 1l227 202z m25 20l-161 143l159 139c2-5 4-9 4-15l0-256c0-4-1-7-2-11z m-508-1c-1 3-2 8-2 12l0 256c0 5 1 9 3 13l161-138z m254 225l-68-60l-158 135l2 0l447 0l-155-135z"/>
    </symbol>

    <symbol id="icon-sort-row" viewBox="0 0 512 512">
      <path d="m475 384l0 37c0 5-1 9-5 12c-4 4-8 6-13 6l-402 0c-5 0-9-2-13-6c-4-3-5-7-5-12l0-37c0-5 1-9 5-13c4-3 8-5 13-5l402 0c5 0 9 2 13 5c4 4 5 8 5 13z m0-146l0 36c0 5-1 10-5 13c-4 4-8 6-13 6l-402 0c-5 0-9-2-13-6c-4-3-5-8-5-13l0-36c0-5 1-10 5-13c4-4 8-6 13-6l402 0c5 0 9 2 13 6c4 3 5 8 5 13z m0-147l0 37c0 5-1 9-5 13c-4 3-8 5-13 5l-402 0c-5 0-9-2-13-5c-4-4-5-8-5-13l0-37c0-5 1-9 5-12c4-4 8-6 13-6l402 0c5 0 9 2 13 6c4 3 5 7 5 12z"/>
    </symbol>
  
</svg>
